<svg width="40" height="41" viewBox="0 0 40 41" fill="none" xmlns="http://www.w3.org/2000/svg">
<g clip-path="url(#clip0_15_8871)">
<path d="M15.7179 17.0064C16.1996 17.0064 16.5901 16.3976 16.5901 15.6465C16.5901 14.8955 16.1996 14.2866 15.7179 14.2866C15.2362 14.2866 14.8457 14.8955 14.8457 15.6465C14.8457 16.3976 15.2362 17.0064 15.7179 17.0064Z" fill="white"/>
<path d="M24.2712 17.0064C24.7529 17.0064 25.1435 16.3976 25.1435 15.6465C25.1435 14.8955 24.7529 14.2866 24.2712 14.2866C23.7895 14.2866 23.399 14.8955 23.399 15.6465C23.399 16.3976 23.7895 17.0064 24.2712 17.0064Z" fill="white"/>
<path d="M21.5327 18.9572H18.4565C18.6253 19.6418 19.2444 20.1577 19.9946 20.1577C20.7355 20.1577 21.3545 19.6418 21.5327 18.9572Z" fill="white"/>
<path d="M25.0028 22.84C26.3346 21.9115 27.3944 20.636 28.079 19.1167H28.0884C29.3733 19.1167 30.4143 18.0757 30.4143 16.7908C30.4143 16.2281 30.208 15.7122 29.8704 15.2996C30.3768 13.8084 30.6394 12.1484 30.6488 10.4789C30.6488 8.65941 29.9548 6.79312 28.8575 5.63949C28.9231 5.31121 29.0169 5.14242 29.2139 4.91736L29.5328 4.57033L29.1857 4.25143C27.9665 3.13538 26.6347 2.51641 25.0404 2.31941C25.0216 2.14124 24.9935 1.93487 25.0779 1.56908L25.1998 1.02512L24.6465 0.996992C23.3898 0.940728 21.7484 1.10014 19.7602 1.46593C19.7227 1.33465 19.7039 1.18454 19.6852 0.959483L19.6194 0.5L19.1317 0.56564C16.2431 0.959561 14.4799 2.49766 12.848 4.24205C12.8386 4.23267 12.8292 4.22329 12.8105 4.21392C12.6511 4.07326 12.4916 3.93252 12.4072 3.86688L12.0695 3.60424L11.7788 3.92315C10.4751 5.32996 9.66859 7.44014 9.35906 10.1881V10.2163C9.31217 11.3604 9.47159 12.6172 9.88426 14.1928C9.98741 14.5867 10.0812 14.9337 10.1844 15.2432C9.80924 15.6559 9.58419 16.2092 9.58419 16.7907C9.58419 18.0756 10.6252 19.1166 11.9101 19.1166H11.9195C12.6041 20.6266 13.664 21.9115 14.9957 22.8399C15.7742 23.3745 16.6276 23.7778 17.5186 24.0404V24.6031C17.5186 25.3158 17.0684 25.963 16.4025 26.2256C16.1587 26.3193 15.9148 26.4225 15.6898 26.5445C15.2958 26.7414 14.9207 26.9759 14.5737 27.2291C11.6288 29.3861 9.99694 33.691 9.72493 40.0122L9.70617 40.4999H30.3017L30.2829 40.0122C30.0109 33.691 28.3791 29.3862 25.4342 27.2291C25.0871 26.9758 24.712 26.7414 24.3181 26.5445C24.0837 26.4319 23.8492 26.3194 23.6054 26.2256C22.9395 25.9629 22.4893 25.3158 22.4893 24.6031V24.0404C23.3709 23.7873 24.2243 23.384 25.0028 22.84ZM10.297 10.2726C10.5502 7.95604 11.188 6.14601 12.1728 4.89861C12.1821 4.90799 12.1821 4.90799 12.1915 4.91736C12.3509 5.05802 12.5104 5.19876 12.5948 5.2644L12.9325 5.52704L13.2232 5.20814C15.0802 3.2011 16.5527 2.00066 18.7942 1.56924C18.841 1.78491 18.8973 1.96316 19.0005 2.20696L19.1411 2.57275L19.5257 2.49773C21.317 2.14132 22.8739 1.96316 24.0743 1.95378C24.0649 2.16945 24.0837 2.33832 24.1024 2.4696C24.1118 2.57275 24.1212 2.62901 24.1118 2.66652L23.9899 3.2011L24.5339 3.23861C25.9876 3.35114 27.1411 3.80132 28.2197 4.69231C28.0227 5.01121 27.9383 5.33942 27.882 5.75209L27.8445 5.9959L28.0227 6.16469C29.0449 7.12132 29.7108 8.81883 29.7014 10.4977C29.7014 11.9514 29.4857 13.3957 29.0731 14.7086C29.0262 14.6899 28.9793 14.6618 28.923 14.643C28.9043 14.1459 28.848 13.6489 28.7636 13.1612C28.3416 10.7508 27.1224 8.86571 25.2466 7.70278L23.8773 6.8493L24.5807 8.303C24.8527 8.86571 24.9371 9.54095 24.8057 10.2631C24.712 10.8165 24.712 11.3979 24.8057 11.9607C23.8491 11.3886 22.9862 10.6476 22.2735 9.78483L21.6733 9.04396L21.4576 9.97246C21.3732 10.3476 21.3263 10.7415 21.3357 11.126C20.4728 10.7133 19.6569 10.1788 18.9535 9.53165L18.5221 9.13773L18.2313 9.64417C18.0906 9.89744 18.0156 10.1788 18.0156 10.4695C16.8339 10.0475 15.8117 9.14711 15.2489 7.99355L15.0144 7.51524L14.5643 7.81539C12.7635 9.00645 11.6381 10.7978 11.2254 13.1613C11.141 13.6489 11.0848 14.146 11.066 14.6431C11.0379 14.6525 11.0098 14.6618 10.991 14.6806C10.9254 14.4649 10.8597 14.2304 10.7941 13.9678C10.4096 12.4859 10.2501 11.3136 10.297 10.2726ZM12.6511 18.4508L12.5104 18.1037L12.1446 18.1694C12.0602 18.1881 11.9852 18.1881 11.9196 18.1881C11.1599 18.1881 10.5315 17.5692 10.5315 16.8001C10.5315 16.153 10.9911 15.5809 11.6288 15.4495L12.004 15.3745V14.9993C12.004 14.446 12.0602 13.8833 12.154 13.33C12.4917 11.4261 13.3357 9.94425 14.6675 8.90322C15.521 10.3007 16.9747 11.3136 18.5784 11.6042L19.6101 11.7918L19.0567 10.8914C19.038 10.8633 19.0286 10.8445 19.0192 10.8164C19.8352 11.4448 20.7542 11.9512 21.7202 12.317L22.4987 12.6078L22.3393 11.7918C22.3018 11.5949 22.283 11.3885 22.2737 11.1822C23.1646 12.0732 24.215 12.7953 25.3592 13.3205L26.4378 13.8082L25.9876 12.7109C25.6968 11.9982 25.603 11.1916 25.7343 10.4319C25.7999 10.0473 25.8187 9.66277 25.7906 9.29706C26.8597 10.3006 27.5538 11.6511 27.8445 13.3299C27.9383 13.8832 27.9945 14.4459 27.9945 14.9993V15.3744L28.3697 15.4494C29.0074 15.5807 29.467 16.1528 29.467 16.8C29.467 17.5597 28.848 18.1881 28.0789 18.1881C28.0133 18.1881 27.9383 18.1787 27.8445 18.1693L27.4787 18.1037L27.338 18.4507C26.0813 21.5363 23.2583 23.4589 19.9945 23.4589C16.7214 23.459 13.9079 21.5363 12.6511 18.4508ZM13.8046 34.9197H26.1845V37.0674H13.8046V34.9197ZM13.8046 38.0053H26.1845V39.5621H13.8046V38.0053ZM29.3076 39.5715H27.1224V33.4754H26.1845V33.9912H13.8046V33.4754H12.8668V39.5715H10.6816C11.0005 33.813 12.501 29.9209 15.1271 27.9889C15.3709 27.8107 15.6335 27.6418 15.8961 27.4918C17.1623 28.1201 18.569 28.4578 19.9946 28.4578C21.4202 28.4578 22.827 28.1295 24.0931 27.4918C24.3651 27.6418 24.6276 27.8013 24.8715 27.9889C27.4975 29.9209 28.9887 33.813 29.3076 39.5715ZM22.9583 26.9666C22.0204 27.3324 21.0075 27.5199 19.9946 27.5199C18.9817 27.5199 17.9688 27.3324 17.0309 26.9666C17.8938 26.507 18.4565 25.5973 18.4565 24.6125V24.2655C18.963 24.3499 19.4788 24.3968 19.9946 24.3968C20.5104 24.3968 21.0262 24.3499 21.5327 24.2655V24.6125C21.5327 25.5973 22.0954 26.507 22.9583 26.9666Z" fill="white"/>
</g>
<defs>
<clipPath id="clip0_15_8871">
<rect width="40" height="40" fill="white" transform="translate(0 0.5)"/>
</clipPath>
</defs>
</svg>
