<svg width="40" height="41" viewBox="0 0 40 41" fill="none" xmlns="http://www.w3.org/2000/svg">
<g clip-path="url(#clip0_9_2713)">
<path d="M16.2423 14.3322C15.9187 14.3322 15.6564 14.5945 15.6564 14.9181V15.5444C15.6564 15.868 15.9187 16.1303 16.2423 16.1303C16.5659 16.1303 16.8283 15.868 16.8283 15.5444V14.9181C16.8283 14.5945 16.5659 14.3322 16.2423 14.3322Z" fill="white"/>
<path d="M23.7575 14.3322C23.4339 14.3322 23.1716 14.5945 23.1716 14.9181V15.5444C23.1716 15.868 23.4339 16.1303 23.7575 16.1303C24.0811 16.1303 24.3434 15.868 24.3434 15.5444V14.9181C24.3434 14.5945 24.0811 14.3322 23.7575 14.3322Z" fill="white"/>
<path d="M32.0919 30.9616L28.8777 29.8272C29.3106 29.1258 30.2431 27.5274 31.1841 25.3512C33.2944 20.4714 33.7373 16.6141 33.7373 14.2374C33.7373 6.66258 27.5748 0.5 19.9999 0.5H18.7474C17.1052 0.5 15.5594 0.999922 14.3948 1.90781C13.8811 2.30828 13.4667 2.76812 13.1592 3.26867C11.1902 4.43039 9.63249 6.04375 8.58507 7.85523C7.45952 9.80172 6.88882 12.0018 6.88882 14.3945C6.88882 18.867 8.09616 23.006 9.10906 25.6905C9.84226 27.6337 10.5694 29.0959 10.9851 29.8755L7.90796 30.9616C6.1746 31.5733 5.01007 33.2193 5.01007 35.0574V39.9141C5.01007 40.2377 5.27241 40.5 5.59601 40.5C5.9196 40.5 6.18195 40.2377 6.18195 39.9141V35.0574C6.18195 33.7152 7.03234 32.5134 8.29796 32.0666L9.25398 31.7292C11.4973 34.83 15.5772 36.7424 20 36.7424C21.9942 36.7424 23.9777 36.3485 25.7361 35.6034C26.0341 35.4771 26.1732 35.1332 26.0469 34.8353C25.9206 34.5373 25.5768 34.3981 25.2788 34.5245C23.6639 35.2088 21.8384 35.5705 20 35.5705C16.0842 35.5705 12.478 33.9569 10.4125 31.3203L14.7661 29.7838C15.9996 29.3484 16.8284 28.177 16.8284 26.869V24.873C17.8119 25.258 18.8816 25.4698 20 25.4698C21.1184 25.4698 22.188 25.258 23.1716 24.873V26.869C23.1716 28.177 24.0004 29.3484 25.2339 29.7838L29.5873 31.3202C28.9862 32.0872 28.2476 32.7757 27.3834 33.3727C27.1172 33.5566 27.0505 33.9216 27.2344 34.1879C27.3482 34.3525 27.531 34.4408 27.717 34.4408C27.8319 34.4408 27.9479 34.4071 28.0495 34.3369C29.1269 33.5926 30.0317 32.7164 30.7456 31.7291L31.702 32.0666C32.9677 32.5134 33.818 33.7152 33.818 35.0574V39.9141C33.818 40.2377 34.0804 40.5 34.404 40.5C34.7276 40.5 34.9899 40.2377 34.9899 39.9141V35.0574C34.9898 33.2194 33.8252 31.5734 32.0919 30.9616ZM15.6564 26.869C15.6564 27.6812 15.1419 28.4084 14.376 28.6787L12.105 29.4803C11.2046 27.8105 8.06062 21.472 8.06062 14.3945C8.06062 12.2105 8.57835 10.2077 9.59945 8.44187C10.3463 7.15023 11.3342 6.03094 12.5436 5.09992C12.5326 5.22242 12.5251 5.34555 12.5251 5.46977C12.5251 6.43086 12.966 7.2907 13.6562 7.85805C12.2434 8.57562 11.2726 10.0423 11.2726 11.7323V13.6111C11.2726 13.6334 11.2545 13.6514 11.2323 13.6514H10.9191C9.73273 13.6514 8.76757 14.6166 8.76757 15.803C8.76757 16.7603 9.39617 17.5733 10.2622 17.8516C9.8721 18.5693 9.39382 19.627 9.39382 20.4999C9.39382 21.5137 10.2186 22.3384 11.2323 22.3384C11.8494 22.3384 12.396 22.0324 12.7296 21.5646C13.4787 22.6902 14.4816 23.6331 15.6564 24.31V26.869ZM10.5657 20.5C10.5657 19.9402 10.9039 19.1505 11.2323 18.5263C11.5607 19.1505 11.8988 19.9402 11.8988 20.5C11.8988 20.8676 11.5998 21.1666 11.2323 21.1666C10.8648 21.1666 10.5657 20.8676 10.5657 20.5ZM25.6238 28.6787C24.858 28.4084 24.3434 27.6812 24.3434 26.869V24.3102C25.5183 23.6332 26.5212 22.6903 27.2702 21.5647C27.6038 22.0325 28.1505 22.3384 28.7676 22.3384C29.7813 22.3384 30.606 21.5137 30.606 20.5C30.606 19.6271 30.1277 18.5694 29.7377 17.8517C30.6037 17.5734 31.2323 16.7604 31.2323 15.803C31.2323 14.6166 30.2671 13.6515 29.0806 13.6515H28.7675C28.7452 13.6515 28.7272 13.6334 28.7272 13.6112V11.7324C28.7272 9.33742 26.7787 7.38891 24.3837 7.38891H23.7575C23.4339 7.38891 23.1716 7.65125 23.1716 7.97484C23.1716 8.29844 23.4339 8.56078 23.7575 8.56078H24.3837C26.1325 8.56078 27.5553 9.98359 27.5553 11.7324V13.6112C27.5553 14.2796 28.0991 14.8234 28.7675 14.8234H29.0806C29.6209 14.8234 30.0604 15.2628 30.0604 15.803C30.0604 16.3433 29.6209 16.7828 29.0806 16.7828H28.7267C28.7268 16.7694 28.7273 16.7559 28.7273 16.7425C28.7273 16.4189 28.4649 16.1566 28.1413 16.1566C27.8177 16.1566 27.5554 16.4189 27.5554 16.7425C27.5554 20.9086 24.166 24.2979 19.9999 24.2979C15.8338 24.2979 12.4445 20.9085 12.4445 16.7425C12.4445 16.4189 12.1822 16.1566 11.8586 16.1566C11.535 16.1566 11.2726 16.4189 11.2726 16.7425C11.2726 16.756 11.2731 16.7694 11.2732 16.7828H10.9192C10.379 16.7828 9.93952 16.3434 9.93952 15.803C9.93952 15.2628 10.379 14.8234 10.9192 14.8234H11.2323C11.9008 14.8234 12.4445 14.2796 12.4445 13.6112V11.7324C12.4445 9.98359 13.8673 8.56078 15.6162 8.56078H21.2527C21.5762 8.56078 21.8386 8.29844 21.8386 7.97484C21.8386 7.65125 21.5762 7.38891 21.2527 7.38891H15.6162C14.558 7.38891 13.6971 6.52797 13.6971 5.46984C13.6971 3.3757 15.9627 1.67195 18.7475 1.67195H19.9999C26.9286 1.67195 32.5655 7.30883 32.5655 14.2375C32.5655 21.5013 28.4151 28.3663 27.7447 29.4274L25.6238 28.6787ZM28.101 20.5C28.101 19.9402 28.4392 19.1505 28.7676 18.5263C29.096 19.1505 29.4341 19.9402 29.4341 20.5C29.4341 20.8676 29.1351 21.1666 28.7676 21.1666C28.4001 21.1666 28.101 20.8676 28.101 20.5Z" fill="white"/>
<path d="M22.2958 19.4622C22.0684 19.2319 21.6975 19.2294 21.4672 19.4566C21.2533 19.6677 20.7408 19.9141 19.9999 19.9141C19.259 19.9141 18.7465 19.6677 18.5326 19.4566C18.3022 19.2293 17.9312 19.2319 17.704 19.4622C17.4768 19.6925 17.4793 20.0635 17.7096 20.2908C18.2142 20.7887 19.0704 21.0859 19.9999 21.0859C20.9294 21.0859 21.7856 20.7886 22.2902 20.2908C22.5206 20.0635 22.523 19.6925 22.2958 19.4622Z" fill="white"/>
<path d="M16.8893 12.4209C16.7508 12.1284 16.4015 12.0037 16.1089 12.1423L15.3652 12.4945C15.0728 12.633 14.948 12.9824 15.0866 13.2749C15.1867 13.4864 15.3971 13.6102 15.6165 13.6102C15.7005 13.6102 15.7859 13.592 15.867 13.5536L16.6106 13.2013C16.903 13.0628 17.0278 12.7134 16.8893 12.4209Z" fill="white"/>
<path d="M24.6346 12.4945L23.8909 12.1422C23.5985 12.0037 23.2491 12.1284 23.1106 12.4209C22.972 12.7134 23.0968 13.0627 23.3892 13.2012L24.1329 13.5535C24.2139 13.5919 24.2993 13.6101 24.3834 13.6101C24.6027 13.6101 24.8131 13.4862 24.9133 13.2748C25.0518 12.9823 24.927 12.633 24.6346 12.4945Z" fill="white"/>
</g>
<defs>
<clipPath id="clip0_9_2713">
<rect width="40" height="40" fill="white" transform="translate(0 0.5)"/>
</clipPath>
</defs>
</svg>
