<svg width="40" height="41" viewBox="0 0 40 41" fill="none" xmlns="http://www.w3.org/2000/svg">
<g clip-path="url(#clip0_15_8892)">
<path d="M34.6881 19.6267C34.1123 19.3772 33.5941 18.9165 33.2678 18.3695C32.3657 16.8628 32.596 14.905 32.9415 13.1967C33.0758 12.525 33.2582 11.882 33.4309 11.2486C33.834 9.80902 34.2083 8.44626 34.1027 6.85317C33.9204 4.17562 32.6152 2.21785 30.5038 1.46929C28.6228 0.787908 26.7898 0.816699 25.2927 1.52687C23.4309 0.653551 21.5211 0.509597 19.9952 0.5C18.4789 0.509597 16.5691 0.653551 14.7073 1.52687C13.2102 0.816699 11.3676 0.787908 9.49617 1.45969C7.39444 2.20825 6.07966 4.16603 5.89732 6.84357C5.79175 8.42706 6.16603 9.79942 6.5691 11.239C6.74185 11.8628 6.92419 12.5154 7.05855 13.1871C7.40404 14.905 7.63436 16.8628 6.73225 18.3599C6.39636 18.9165 5.87813 19.3772 5.31191 19.6171C4.91843 19.7898 4.66891 20.1545 4.65932 20.5864C4.64972 21.0182 4.88005 21.4117 5.25433 21.6036C6.53072 22.2466 7.50001 22.3714 8.35413 22.3714C8.43091 22.3714 8.50768 22.3714 8.59406 22.3714C10.1871 22.333 11.5019 21.9299 12.9031 21.0182C13.5077 21.9011 14.2562 22.6689 15.12 23.2735C15.8781 23.8013 16.7035 24.1948 17.5864 24.4443V25.0202C17.5864 25.7207 17.1545 26.3445 16.4923 26.6036C12.5 28.1488 10.3119 32.6689 9.98561 40.0393L9.96642 40.5096H30.024L30.0048 40.0393C29.6881 32.6689 27.5 28.1488 23.4981 26.6036C22.8359 26.3445 22.404 25.7207 22.404 25.0202V24.4443C23.2774 24.1948 24.1123 23.8013 24.8705 23.2735C25.7438 22.6689 26.4923 21.9107 27.0873 21.0278C28.4885 21.9299 29.7937 22.3426 31.3964 22.381C31.4731 22.381 31.5499 22.381 31.6363 22.381C32.4904 22.381 33.4693 22.2562 34.7361 21.6132C35.12 21.4213 35.3503 21.0278 35.3311 20.596C35.3215 20.1641 35.072 19.7898 34.6881 19.6267ZM25.8397 2.85125C28.7188 4.66507 29.5442 6.28695 30.1296 8.83013C30.6766 11.1814 30.4367 13.3119 29.3522 15.6727C29.1603 15.5096 28.9395 15.3656 28.6996 15.2793C28.6804 14.7994 28.6324 14.31 28.5461 13.8301C28.4981 13.5614 28.4405 13.2927 28.3733 13.024L28.2678 12.6209L27.8551 12.6977C27.4712 12.7649 27.0777 12.8033 26.6939 12.8033C23.9012 12.8033 21.3868 11.0374 20.4367 8.40787L20.0144 7.22745L19.5921 8.40787C18.642 11.0374 16.1276 12.8033 13.3349 12.8033C12.9511 12.8033 12.5576 12.7649 12.1737 12.6977L11.761 12.6209L11.6555 13.024C11.5883 13.2927 11.5211 13.5614 11.4827 13.8301C11.3964 14.31 11.3484 14.7898 11.3292 15.2793C11.0893 15.3752 10.8685 15.5096 10.6766 15.6727C9.59214 13.3119 9.35221 11.1814 9.89924 8.83013C10.4559 6.29655 11.2812 4.66507 14.1507 2.85125C16.1372 1.60365 18.3157 1.42131 19.9952 1.40211C21.6747 1.42131 23.8532 1.60365 25.8397 2.85125ZM8.57486 21.4693C7.77832 21.4885 6.87621 21.4213 5.66699 20.8071C5.57102 20.7591 5.56143 20.6631 5.56143 20.6248C5.56143 20.5768 5.58062 20.5 5.66699 20.4616C6.40596 20.1449 7.07774 19.5499 7.5096 18.8301C8.57486 17.0643 8.32534 14.8954 7.94147 13.0048C7.79751 12.3042 7.61517 11.642 7.44243 10.999C7.06815 9.63628 6.70346 8.34069 6.79943 6.91075C6.8858 5.55758 7.40404 3.16795 9.79367 2.31382C11.1468 1.83397 12.5 1.76679 13.6516 2.10269C10.5422 4.06046 9.61133 5.91267 8.97793 8.6286C8.36373 11.3061 8.69962 13.8109 10.0336 16.5077C9.91843 16.7764 9.85125 17.0739 9.85125 17.381C9.85125 18.6286 10.8685 19.6363 12.1065 19.6363H12.1161C12.2121 19.8474 12.3081 20.0489 12.4232 20.2409C10.8589 21.2678 9.64972 21.4405 8.57486 21.4693ZM19.0451 30.0202C18.6228 30.7687 17.8551 31.239 17.001 31.239C15.715 31.239 14.6689 30.1641 14.6209 28.8301C14.8896 28.5806 15.168 28.3599 15.4655 28.1583C16.4156 29.1564 17.6823 29.809 19.0451 30.0202ZM27.0202 39.5979C27.1353 37.6305 26.9722 35.6631 26.5499 33.7438L25.667 33.9453C26.0797 35.8071 26.2332 37.7073 26.1181 39.5979H13.882C13.7668 37.6977 13.9204 35.7975 14.333 33.9453L13.4501 33.7438C13.0182 35.6631 12.8647 37.6305 12.9799 39.5979H10.9165C11.166 35.1065 12.1449 31.786 13.834 29.6747C14.2275 31.095 15.4942 32.1411 17.001 32.1411C18.3157 32.1411 19.477 31.3445 20.0048 30.1257C20.5326 31.3445 21.6939 32.1411 23.0086 32.1411C24.5058 32.1411 25.7726 31.095 26.1756 29.6747C27.8647 31.786 28.8436 35.1065 29.0931 39.5979H27.0202ZM24.5442 28.1583C24.8417 28.3599 25.12 28.5806 25.3887 28.8301C25.3407 30.1641 24.2946 31.239 23.0086 31.239C22.1545 31.239 21.3868 30.7687 20.9645 30.0202C22.3177 29.809 23.5845 29.1564 24.5442 28.1583ZM23.1718 27.4386C23.3637 27.5154 23.5461 27.5921 23.7284 27.6881C22.7975 28.5806 21.5595 29.118 20.2735 29.1756L19.9952 29.1852L19.7169 29.1756C18.4213 29.1084 17.1929 28.571 16.262 27.6881C16.4443 27.6017 16.6267 27.5154 16.8186 27.4386C17.8359 27.0451 18.4885 26.095 18.4885 25.0106V24.6459C18.9779 24.7322 19.4866 24.7802 19.9952 24.7802C20.5038 24.7802 21.0029 24.7322 21.5019 24.6459V25.0106C21.5019 26.095 22.1641 27.0451 23.1718 27.4386ZM19.9952 23.8781C16.809 23.8781 14.0643 22.0067 12.8359 18.9933L12.7015 18.6574L12.3465 18.715C12.2601 18.7246 12.1929 18.7342 12.1257 18.7342C11.3772 18.7342 10.7726 18.1296 10.7726 17.381C10.7726 16.7476 11.2236 16.191 11.8474 16.0566L12.2025 15.9798V15.6152C12.2025 15.0777 12.2601 14.5307 12.3465 13.9837C12.3657 13.8685 12.3848 13.763 12.4136 13.6478C12.7111 13.6862 13.0182 13.7054 13.3157 13.7054C16.1372 13.7054 18.7092 12.1219 20.0048 9.67466C21.3004 12.1219 23.8724 13.7054 26.6939 13.7054C26.9914 13.7054 27.2985 13.6862 27.596 13.6478C27.6248 13.763 27.644 13.8685 27.6632 13.9837C27.7591 14.5211 27.8071 15.0777 27.8071 15.6152V15.9798L28.1622 16.0566C28.786 16.191 29.2371 16.7476 29.2371 17.381C29.2371 18.1296 28.6324 18.7342 27.8839 18.7342C27.8167 18.7342 27.7399 18.7246 27.6632 18.715L27.3081 18.6574L27.1737 18.9933C25.9357 22.0067 23.191 23.8781 19.9952 23.8781ZM34.3234 20.7975C33.1142 21.4117 32.2121 21.4789 31.4156 21.4597C30.3407 21.4309 29.1411 21.2678 27.5576 20.2409C27.6632 20.0393 27.7687 19.8378 27.8647 19.6363H27.8743C29.1219 19.6363 30.1296 18.619 30.1296 17.381C30.1296 17.0739 30.0624 16.7764 29.9472 16.5077C31.2812 13.8109 31.6171 11.3061 31.0029 8.6286C30.3791 5.91267 29.4386 4.06046 26.3292 2.09309C27.4712 1.7572 28.834 1.82438 30.1872 2.30422C32.5768 3.15835 33.095 5.54798 33.1814 6.90115C33.2774 8.33109 32.9223 9.62668 32.5384 10.9894C32.3561 11.6324 32.1737 12.2946 32.0394 12.9952C31.6555 14.8762 31.4156 17.0451 32.4712 18.8205C32.9031 19.5307 33.5653 20.1257 34.3138 20.452C34.4002 20.4904 34.4194 20.5672 34.4194 20.6152C34.429 20.6535 34.4194 20.7495 34.3234 20.7975Z" fill="white"/>
<path d="M19.9952 20.6536C20.715 20.6536 21.3196 20.1545 21.4923 19.4827H18.5077C18.6708 20.1545 19.2754 20.6536 19.9952 20.6536Z" fill="white"/>
<path d="M15.9741 14.8186C15.715 14.8186 15.4846 14.9914 15.3311 15.2505C15.168 15.2697 15.0048 15.2409 14.8992 15.1545C14.7745 15.0585 14.5921 15.0873 14.4962 15.2121C14.4002 15.3369 14.429 15.5192 14.5537 15.6152C14.7265 15.7399 14.928 15.8071 15.12 15.8263C15.1008 15.9415 15.0912 16.0662 15.0912 16.191C15.0912 16.9587 15.4846 17.5729 15.9837 17.5729C16.4731 17.5729 16.8762 16.9587 16.8762 16.191C16.857 15.4328 16.4635 14.8186 15.9741 14.8186Z" fill="white"/>
<path d="M25.1104 15.1545C24.9952 15.2409 24.8417 15.2601 24.6785 15.2505C24.5154 14.9818 24.285 14.809 24.0355 14.809C23.5461 14.809 23.143 15.4232 23.143 16.191C23.143 16.9587 23.5365 17.5729 24.0355 17.5729C24.525 17.5729 24.928 16.9587 24.928 16.191C24.928 16.0662 24.9184 15.9415 24.8992 15.8263C25.1008 15.8071 25.2927 15.7495 25.4655 15.6152C25.5902 15.5192 25.619 15.3369 25.523 15.2121C25.4271 15.0873 25.2351 15.0681 25.1104 15.1545Z" fill="white"/>
</g>
<defs>
<clipPath id="clip0_15_8892">
<rect width="40" height="40" fill="white" transform="translate(0 0.5)"/>
</clipPath>
</defs>
</svg>
