<svg width="152" height="39" viewBox="0 0 152 39" fill="none" xmlns="http://www.w3.org/2000/svg">
<path d="M51.4207 4.79193H54.1395C54.7964 4.79193 55.4533 5.03125 55.946 5.50989C56.4478 5.98852 56.6941 6.5558 56.6941 7.18511V8.70079H51.4207V4.79193Z" fill="#F7931D"/>
<path d="M0 29.6456V7.30035C0 6.59126 0.246339 6.03285 0.821128 5.47444C1.30468 5.00467 1.96158 4.76535 2.69148 4.76535H5.21873V14.1342H15.7292V4.87171C21.842 4.23353 21.03 7.08762 21.03 11.2801V29.6456H15.7292V18.6458H5.21873V29.6456H0Z" fill="#235E8B"/>
<path d="M44.3589 4.79193H46.9957C47.7347 4.79193 48.3095 5.03125 48.8022 5.43011C49.2948 5.90875 49.5412 6.46716 49.5412 7.18511V29.6456H44.3589V4.79193Z" fill="#235E8B"/>
<path d="M51.4207 9.95058H54.1395C54.7964 9.95058 55.4533 10.1988 55.946 10.6863C56.4478 11.1738 56.6941 11.8297 56.6941 12.4856V29.6456H51.4207V9.95058Z" fill="#235E8B"/>
<path fill-rule="evenodd" clip-rule="evenodd" d="M76.6567 7.2383V21.0567C76.6567 24.4338 75.6805 26.7028 73.6641 27.8817C71.6387 29.0606 69.4581 29.681 67.1134 29.681C65.8999 29.681 64.6135 29.4506 63.4 29.0606C62.1866 28.6706 61.2103 27.9615 60.4896 27.0928C59.0298 25.3733 58.382 22.9447 58.382 19.9488C58.382 16.9706 59.0298 14.5419 60.4896 12.7338C61.9402 10.9344 63.8015 9.98602 66.1462 9.98602C67.3597 9.98602 68.4089 10.2253 69.2939 10.6951C70.3522 11.2447 71.073 12.0247 71.6387 12.8933V4.8008H74.1477C74.8685 4.8008 75.4341 5.04011 75.9177 5.50989C76.4104 6.05943 76.6567 6.61784 76.6567 7.2383ZM71.6387 19.7183C71.6387 17.9899 71.3194 16.6603 70.5895 15.6322C69.7775 14.7015 68.7282 14.2228 67.4327 14.2228C66.1462 14.2228 65.1791 14.7724 64.4492 15.7119C63.7194 16.6603 63.3179 17.9899 63.3179 19.7183C63.3179 21.6062 63.7194 23.0156 64.4492 24.0349C65.1791 25.0542 66.2284 25.524 67.5969 25.524C68.8925 25.524 69.9417 25.0542 70.6716 24.0349C71.3194 23.0156 71.6387 21.6062 71.6387 19.7183Z" fill="#235E8B"/>
<path fill-rule="evenodd" clip-rule="evenodd" d="M1.87947 33.5722V36.6744H1.05834V33.5722H0V32.9074H2.92869V33.5722H1.87947ZM8.84994 34.7865C8.84994 35.076 8.8104 35.3419 8.73133 35.5842C8.65834 35.8206 8.54582 36.0244 8.39376 36.1958C8.2417 36.3672 8.0501 36.4972 7.81897 36.5858C7.58784 36.6803 7.31413 36.7276 6.99784 36.7276C6.68155 36.7276 6.40784 36.6803 6.17671 36.5858C5.94558 36.4972 5.75398 36.3672 5.60192 36.1958C5.45594 36.0244 5.34342 35.8176 5.26435 35.5753C5.19136 35.339 5.15486 35.076 5.15486 34.7865C5.15486 34.3965 5.22177 34.0567 5.35558 33.7672C5.4894 33.4776 5.69316 33.2531 5.96687 33.0935C6.24058 32.934 6.58728 32.8542 7.00696 32.8542C7.42665 32.8542 7.77335 32.934 8.04706 33.0935C8.31469 33.2531 8.51541 33.4776 8.64922 33.7672C8.78303 34.0567 8.84994 34.3965 8.84994 34.7865ZM6.02161 34.7865C6.02161 35.0524 6.05506 35.2799 6.12197 35.469C6.18888 35.6581 6.29532 35.8028 6.4413 35.9033C6.58727 36.0037 6.77279 36.054 6.99784 36.054C7.23505 36.054 7.42665 36.0037 7.57263 35.9033C7.71252 35.8028 7.81593 35.6581 7.88283 35.469C7.94974 35.2799 7.98319 35.0524 7.98319 34.7865C7.98319 34.3906 7.90716 34.0803 7.7551 33.8558C7.60304 33.6312 7.35366 33.519 7.00696 33.519C6.77583 33.519 6.58727 33.5692 6.4413 33.6697C6.29532 33.7701 6.18888 33.9149 6.12197 34.104C6.05506 34.2931 6.02161 34.5206 6.02161 34.7865ZM13.7858 32.9074H14.607V35.3449C14.607 35.6049 14.5461 35.8383 14.4245 36.0451C14.3089 36.2578 14.1325 36.4233 13.8953 36.5415C13.6581 36.6656 13.3601 36.7276 13.0012 36.7276C12.4842 36.7276 12.0919 36.6006 11.8242 36.3465C11.5566 36.0924 11.4228 35.7556 11.4228 35.336V32.9074H12.2439V35.2119C12.2439 35.5251 12.3078 35.7437 12.4355 35.8678C12.5693 35.9919 12.764 36.054 13.0194 36.054C13.2019 36.054 13.3479 36.0244 13.4574 35.9653C13.5669 35.9062 13.649 35.8147 13.7037 35.6906C13.7585 35.5665 13.7858 35.4069 13.7858 35.2119V32.9074ZM17.3532 32.9074H18.4845C18.8312 32.9074 19.1201 32.9487 19.3513 33.0315C19.5824 33.1142 19.7527 33.2383 19.8622 33.4037C19.9717 33.5692 20.0264 33.779 20.0264 34.0331C20.0264 34.2044 19.993 34.3551 19.9261 34.4851C19.8591 34.6151 19.7709 34.7244 19.6615 34.8131C19.552 34.9017 19.4334 34.9726 19.3056 35.0258L20.4461 36.6656H19.5337L18.6122 35.2208H18.1743V36.6656H17.3532V32.9074ZM18.4206 33.5633H18.1743V34.5826H18.4389C18.7126 34.5826 18.9072 34.5383 19.0228 34.4497C19.1384 34.361 19.1962 34.231 19.1962 34.0597C19.1962 33.8824 19.1323 33.7553 19.0046 33.6785C18.8829 33.6017 18.6883 33.5633 18.4206 33.5633ZM25.0262 35.6285C25.0262 35.8531 24.9684 36.0481 24.8528 36.2135C24.7433 36.379 24.5822 36.506 24.3693 36.5947C24.1564 36.6833 23.8979 36.7276 23.5938 36.7276C23.4599 36.7276 23.3292 36.7187 23.2014 36.701C23.0737 36.6833 22.9521 36.6567 22.8365 36.6212C22.7148 36.5917 22.6023 36.5503 22.4989 36.4972V35.7615C22.6814 35.8383 22.873 35.9092 23.0737 35.9742C23.2683 36.0333 23.463 36.0628 23.6576 36.0628C23.7914 36.0628 23.9009 36.0481 23.9861 36.0185C24.0651 35.9831 24.1229 35.9358 24.1594 35.8767C24.1959 35.8117 24.2142 35.7408 24.2142 35.664C24.2142 35.5694 24.1838 35.4897 24.1229 35.4247C24.056 35.3597 23.9648 35.2976 23.8492 35.2385C23.7337 35.1794 23.6059 35.1174 23.466 35.0524C23.3748 35.011 23.2775 34.9608 23.1741 34.9017C23.0646 34.8426 22.9642 34.7687 22.873 34.6801C22.7757 34.5974 22.6966 34.494 22.6358 34.3699C22.5749 34.2458 22.5445 34.0981 22.5445 33.9267C22.5445 33.7022 22.5962 33.5101 22.6996 33.3506C22.8091 33.191 22.9612 33.0699 23.1558 32.9872C23.3505 32.8985 23.5846 32.8542 23.8583 32.8542C24.0591 32.8542 24.2507 32.8778 24.4331 32.9251C24.6156 32.9724 24.8072 33.0374 25.0079 33.1201L24.7433 33.7406C24.5609 33.6697 24.3997 33.6165 24.2598 33.581C24.1199 33.5397 23.9769 33.519 23.831 33.519C23.7276 33.519 23.6394 33.5367 23.5664 33.5722C23.4934 33.6017 23.4387 33.646 23.4022 33.7051C23.3657 33.7583 23.3474 33.8233 23.3474 33.9001C23.3474 33.9887 23.3748 34.0656 23.4295 34.1306C23.4843 34.1897 23.5633 34.2458 23.6667 34.299C23.7762 34.3581 23.9131 34.426 24.0773 34.5028C24.278 34.5915 24.4453 34.686 24.5791 34.7865C24.7251 34.8869 24.8346 35.0022 24.9076 35.1322C24.9866 35.2681 25.0262 35.4335 25.0262 35.6285ZM31.9328 32.8542C32.1396 32.8542 32.3251 32.8867 32.4893 32.9517C32.6535 33.0167 32.7813 33.1083 32.8725 33.2265C32.9698 33.3506 33.0185 33.5012 33.0185 33.6785C33.0185 33.9208 32.9425 34.1217 32.7904 34.2812C32.6444 34.4467 32.4619 34.5915 32.243 34.7156L32.9911 35.4335C33.0702 35.3153 33.1341 35.1883 33.1827 35.0524C33.2375 34.9224 33.2831 34.7894 33.3196 34.6535H34.1681C34.1133 34.8544 34.0312 35.0672 33.9217 35.2917C33.8183 35.5103 33.6845 35.7201 33.5203 35.921L34.3232 36.6744H33.3196L33.0185 36.3819C32.9151 36.4528 32.8026 36.5149 32.6809 36.5681C32.5593 36.6153 32.4315 36.6537 32.2977 36.6833C32.1639 36.7128 32.021 36.7276 31.8689 36.7276C31.577 36.7276 31.3276 36.6833 31.1208 36.5947C30.9079 36.506 30.7467 36.379 30.6372 36.2135C30.5216 36.054 30.4639 35.8678 30.4639 35.6551C30.4639 35.4778 30.4943 35.3242 30.5551 35.1942C30.6098 35.0701 30.6889 34.9578 30.7923 34.8574C30.9018 34.7628 31.0295 34.6742 31.1755 34.5915C31.0843 34.4851 31.0113 34.3847 30.9565 34.2901C30.9018 34.2015 30.8623 34.1099 30.8379 34.0153C30.8136 33.9267 30.8014 33.8292 30.8014 33.7228C30.8014 33.5456 30.8471 33.3919 30.9383 33.2619C31.0356 33.1319 31.1694 33.0315 31.3397 32.9606C31.51 32.8897 31.7077 32.8542 31.9328 32.8542ZM32.5258 35.9122L31.6499 35.0612C31.583 35.1085 31.5222 35.1587 31.4675 35.2119C31.4188 35.2651 31.3823 35.3212 31.358 35.3803C31.3337 35.4453 31.3215 35.5133 31.3215 35.5842C31.3215 35.7319 31.3793 35.8501 31.4948 35.9387C31.6104 36.0215 31.7533 36.0628 31.9236 36.0628C32.0453 36.0628 32.1548 36.051 32.2521 36.0274C32.3555 35.9978 32.4467 35.9594 32.5258 35.9122ZM31.9236 33.4658C31.8385 33.4658 31.7533 33.4865 31.6682 33.5278C31.5891 33.5751 31.5496 33.6578 31.5496 33.776C31.5496 33.8647 31.5709 33.9503 31.6134 34.0331C31.6621 34.1158 31.7229 34.1985 31.7959 34.2812C31.948 34.1985 32.0666 34.1187 32.1517 34.0419C32.2308 33.9592 32.2703 33.8647 32.2703 33.7583C32.2703 33.6519 32.2339 33.5781 32.1609 33.5367C32.0879 33.4894 32.0088 33.4658 31.9236 33.4658ZM41.3119 33.5722V36.6744H40.4908V33.5722H39.4415V32.9074H42.3702V33.5722H41.3119ZM44.7606 32.9074H45.8828C46.2356 32.9074 46.5276 32.9487 46.7587 33.0315C46.9838 33.1142 47.1541 33.2383 47.2696 33.4037C47.3791 33.5751 47.4339 33.7878 47.4339 34.0419C47.4339 34.2133 47.4004 34.361 47.3335 34.4851C47.2666 34.6151 47.1784 34.7244 47.0689 34.8131C46.9594 34.9017 46.8408 34.9756 46.7131 35.0347L47.8535 36.6744H46.9412L46.0197 35.2297H45.5818V36.6744H44.7606V32.9074ZM45.8281 33.5633H45.5818V34.5737H45.8463C46.114 34.5737 46.3086 34.5324 46.4303 34.4497C46.5458 34.3551 46.6036 34.2222 46.6036 34.0508C46.6036 33.8735 46.5397 33.7465 46.412 33.6697C46.2904 33.5987 46.0957 33.5633 45.8281 33.5633ZM53.4007 36.6656H52.5157L52.2329 35.7703H50.8187L50.5359 36.6656H49.6509L51.0194 32.8897H52.023L53.4007 36.6656ZM51.0286 35.1056H52.0413L51.7585 34.2281C51.7402 34.169 51.7159 34.0951 51.6855 34.0065C51.6611 33.9119 51.6338 33.8174 51.6034 33.7228C51.573 33.6283 51.5486 33.5456 51.5304 33.4747C51.5121 33.5456 51.4878 33.6312 51.4574 33.7317C51.427 33.8381 51.3996 33.9356 51.3753 34.0242C51.3449 34.1187 51.3236 34.1867 51.3114 34.2281L51.0286 35.1056ZM57.8987 32.9074H58.7289L57.406 36.6656H56.5119L55.1981 32.9074H56.0283L56.7582 35.1499C56.7704 35.1853 56.7917 35.2562 56.8221 35.3626C56.8464 35.4631 56.8738 35.5724 56.9042 35.6906C56.9346 35.8028 56.9559 35.8974 56.9681 35.9742C56.9742 35.8974 56.9924 35.8028 57.0228 35.6906C57.0471 35.5724 57.0745 35.4631 57.1049 35.3626C57.1293 35.2562 57.1475 35.1853 57.1597 35.1499L57.8987 32.9074ZM63.2543 36.0097V36.6656H61.019V32.9074H63.2543V33.5544H61.8401V34.3787H63.1539V35.0347H61.8401V36.0097H63.2543ZM68.254 36.6656H65.8636V32.9074H66.6848V36.0097H68.254V36.6656ZM73.0166 35.6197C73.0166 35.8442 72.9618 36.0362 72.8523 36.1958C72.7429 36.3612 72.5817 36.4883 72.3688 36.5769C72.1559 36.6715 71.8974 36.7187 71.5933 36.7187C71.4595 36.7187 71.3257 36.7099 71.1918 36.6922C71.0702 36.6744 70.9485 36.6478 70.8269 36.6124C70.7113 36.5769 70.6018 36.5356 70.4984 36.4883V35.7437C70.6809 35.8265 70.8695 35.8974 71.0641 35.9565C71.2648 36.0215 71.4625 36.054 71.6571 36.054C71.791 36.054 71.8974 36.0362 71.9765 36.0008C72.0616 35.9712 72.1225 35.924 72.1589 35.859C72.1954 35.7999 72.2137 35.7319 72.2137 35.6551C72.2137 35.5606 72.1802 35.4808 72.1133 35.4158C72.0525 35.3508 71.9643 35.2887 71.8487 35.2297C71.7332 35.1706 71.6054 35.1056 71.4656 35.0347C71.3743 34.9992 71.2739 34.9519 71.1645 34.8928C71.0611 34.8278 70.9607 34.754 70.8634 34.6712C70.7721 34.5826 70.6931 34.4792 70.6262 34.361C70.5653 34.2369 70.5349 34.0892 70.5349 33.9178C70.5349 33.6933 70.5897 33.5012 70.6992 33.3417C70.8026 33.1822 70.9546 33.061 71.1553 32.9783C71.35 32.8897 71.5811 32.8453 71.8487 32.8453C72.0495 32.8453 72.2411 32.869 72.4235 32.9162C72.606 32.9576 72.7976 33.0226 72.9983 33.1112L72.7337 33.7317C72.5573 33.6608 72.3992 33.6076 72.2593 33.5722C72.1133 33.5308 71.9673 33.5101 71.8214 33.5101C71.718 33.5101 71.6328 33.5278 71.5659 33.5633C71.4929 33.5928 71.4382 33.6372 71.4017 33.6962C71.3591 33.7494 71.3378 33.8144 71.3378 33.8912C71.3378 33.9799 71.3652 34.0567 71.4199 34.1217C71.4747 34.1808 71.5568 34.2369 71.6663 34.2901C71.7757 34.3492 71.9126 34.4172 72.0768 34.494C72.2715 34.5826 72.4387 34.6772 72.5786 34.7776C72.7185 34.8722 72.828 34.9874 72.9071 35.1233C72.9801 35.2533 73.0166 35.4187 73.0166 35.6197ZM81.1275 36.6656H78.7371V32.8985H79.5582V36.0008H81.1275V36.6656ZM85.0963 33.5722V36.6656H84.2752V33.5722H83.2259V32.9074H86.1455V33.5722H85.0963ZM91.7657 34.751C91.7657 35.1765 91.6805 35.531 91.5102 35.8147C91.346 36.0983 91.1057 36.311 90.7894 36.4528C90.4732 36.5947 90.093 36.6656 89.649 36.6656H88.545V32.9074H89.7676C90.169 32.9074 90.5188 32.9783 90.8168 33.1201C91.1209 33.256 91.3551 33.4628 91.5193 33.7406C91.6836 34.0124 91.7657 34.3492 91.7657 34.751ZM90.908 34.7687C90.908 34.491 90.8655 34.2635 90.7803 34.0862C90.6952 33.909 90.5705 33.776 90.4062 33.6874C90.2481 33.6047 90.0474 33.5633 89.8041 33.5633H89.3661V36.0097H89.722C90.1234 36.0097 90.4214 35.9062 90.6161 35.6994C90.8107 35.4926 90.908 35.1824 90.908 34.7687ZM94.1926 36.3022C94.1926 36.1426 94.2351 36.0303 94.3203 35.9653C94.4115 35.8944 94.524 35.859 94.6579 35.859C94.7795 35.859 94.886 35.8944 94.9772 35.9653C95.0684 36.0303 95.114 36.1426 95.114 36.3022C95.114 36.4558 95.0684 36.5681 94.9772 36.639C94.886 36.704 94.7795 36.7365 94.6579 36.7365C94.524 36.7365 94.4115 36.704 94.3203 36.639C94.2351 36.5681 94.1926 36.4558 94.1926 36.3022Z" fill="white"/>
<path fill-rule="evenodd" clip-rule="evenodd" d="M32.7537 29.619C32.2793 29.619 31.8048 29.5835 31.3304 29.5126C25.9475 28.7681 22.1976 23.9019 22.9732 18.6724C23.7395 13.4428 28.7484 9.79989 34.1314 10.5533C36.7407 10.9167 39.049 12.2463 40.6274 14.2938C42.2058 16.3413 42.8718 18.8674 42.4886 21.3935C42.1146 23.9285 40.746 26.171 38.6385 27.7044C36.9141 28.9542 34.8704 29.619 32.7537 29.619ZM32.7263 10.7926C28.0733 10.7926 23.995 14.1253 23.3199 18.7167C22.5717 23.7601 26.1847 28.449 31.376 29.1758C33.8942 29.5303 36.394 28.9099 38.4286 27.4297C40.4632 25.9494 41.7861 23.7867 42.1419 21.3492C42.5069 18.9028 41.8682 16.4742 40.3446 14.4976C38.8209 12.521 36.5948 11.2447 34.0858 10.8901C33.6296 10.8251 33.1764 10.7926 32.7263 10.7926Z" fill="#F79420"/>
<path d="M34.1222 12.7515C34.1222 12.7515 34.0857 12.4058 33.7117 12.1753C33.3285 11.9537 32.3887 11.7676 32.2975 12.2551C32.2063 12.7426 31.8322 12.4324 31.8322 12.4324C31.8322 12.4324 32.0603 12.326 32.0968 12.0601C32.1333 11.7853 31.3943 11.6612 31.376 11.9006C31.3578 12.1399 31.5311 12.2551 31.3304 12.2906C31.1297 12.3349 30.9472 12.3969 30.7009 12.4147C30.4454 12.4324 30.418 12.131 30.418 12.131C30.418 12.131 30.6096 12.1576 30.8833 12.0956C31.157 12.0335 31.3213 11.7765 31.0202 11.679C30.71 11.5903 31.0384 11.9094 30.3633 11.8119C30.3633 11.8119 30.272 11.7853 30.1991 11.5726C30.1261 11.351 29.5057 11.2447 29.2867 11.4397C29.0586 11.6347 29.1772 11.7853 29.3597 11.8474C29.5513 11.9094 29.2867 12.0247 29.5786 12.0867C29.8706 12.1399 29.9892 12.1753 29.9071 12.2462C29.825 12.326 28.3652 11.9094 28.3926 11.5903C28.3926 11.5903 25.4548 12.8844 24.2869 15.5435C24.2869 15.5435 24.3143 15.7031 24.5059 15.7474C24.6884 15.7917 24.8161 15.8094 24.7431 16.1551C24.6701 16.5097 24.5606 17.2542 25.0442 17.334C25.5277 17.4226 25.2905 17.0237 25.1719 16.8376C25.0624 16.6515 24.9894 16.0665 25.2632 16.2083C25.546 16.359 25.1354 16.3856 25.5551 17.1478C25.9657 17.9101 25.327 17.8569 25.8288 18.4065C26.3306 18.956 26.6135 18.3799 26.7777 18.5749C26.9419 18.7699 26.7868 18.8851 27.1153 18.9294C27.4437 18.9737 27.3069 18.8408 27.4528 19.151C27.5988 19.4612 27.6992 20.0817 28.6754 19.8512C28.6754 19.8512 28.8396 20.2058 28.6754 20.4362C28.5203 20.6756 28.0459 20.6578 27.9911 21.1542C27.9364 21.6417 28.0459 21.8278 28.274 22.1912C28.5112 22.5458 28.3378 22.7674 28.5933 22.9358C28.8488 23.1131 29.4509 23.2106 29.3323 23.6626C29.2137 24.1147 29.0039 24.939 29.1133 25.1428C29.2228 25.3467 29.086 25.3467 29.0495 25.6037C29.013 25.8519 29.3779 26.109 29.3506 26.4369C29.3232 26.756 28.9856 27.0751 29.2046 27.4119C29.4235 27.7487 29.4783 27.6247 29.5695 27.926C29.6699 28.2362 29.7337 28.3603 29.9071 28.4047C30.0804 28.449 30.3542 28.4844 30.4545 28.6351C30.5549 28.7858 30.8103 28.511 30.637 28.3515C30.4728 28.1919 30.2538 28.2451 30.3177 27.926C30.3815 27.6069 30.5731 27.5183 30.3085 27.3587C30.0531 27.1992 30.0987 27.0219 30.1991 27.0219C30.3085 27.0131 30.5549 26.9156 30.345 26.7472C30.1443 26.5787 30.0804 26.5344 30.2355 26.5433C30.3906 26.5433 30.8833 26.7028 31.3213 26.2951C31.7501 25.8962 32.1424 25.4176 32.1424 25.4176C32.1424 25.4176 32.2701 25.1428 32.2245 24.8592C32.1698 24.5756 32.3979 24.5047 32.781 24.5401C33.1642 24.5756 33.1186 24.3983 33.1186 24.3983C33.1186 24.3983 33.4653 24.7351 33.5748 23.3612C33.5748 23.3612 33.5566 23.1308 33.9945 22.9358C34.4324 22.7408 34.0584 22.2444 33.812 22.2444C33.812 22.2444 33.7117 21.9342 33.5109 21.8899C33.3011 21.8456 32.8358 21.8987 32.6442 21.7481C32.4526 21.6062 32.188 21.4822 32.188 21.4822C32.188 21.4822 32.4252 20.4983 31.4307 20.4983C31.4307 20.4983 31.2848 19.7892 30.7921 19.8069C30.2903 19.8247 30.2355 19.869 30.1626 19.7537C30.0896 19.6385 29.9983 19.1953 29.6425 19.284C29.2958 19.3726 29.2137 19.8069 28.8761 19.7094C28.5385 19.6119 28.1097 19.6385 28.2101 19.3106C28.3105 18.9737 28.3652 18.5926 27.836 18.5837C27.836 18.5837 27.6992 18.5306 27.9273 18.3533C28.1462 18.176 28.0459 17.9101 27.9181 17.9278C27.7904 17.9456 27.4163 18.2026 27.2339 18.2115C27.0605 18.2203 26.4857 18.1228 26.8051 17.4403C27.1153 16.7667 28.6115 16.6958 28.721 17.0415C28.8305 17.3783 28.7028 17.5201 29.0495 17.5467C29.4053 17.5822 29.2958 16.9794 29.2958 16.9794L30.2447 16.4122C30.2447 16.4122 30.345 16.3412 30.418 16.226C30.4819 16.1197 31.6497 15.5701 31.8961 15.1978C32.1515 14.8167 32.2336 14.604 32.5621 14.7724C32.8905 14.9408 33.0274 14.9762 33.1095 14.7635C33.2007 14.5508 33.6295 15.0915 33.8029 14.861C33.9854 14.6217 33.9033 14.3381 33.5383 14.2849C33.1734 14.2406 33.6478 13.886 33.5018 13.7974C33.3558 13.7087 33.0821 14.019 32.9361 13.8949C32.7993 13.7708 33.1004 13.3187 32.6168 13.301C32.1424 13.2833 32.0876 13.3276 31.9417 13.8417C31.7957 14.3558 31.5858 13.8417 31.2118 14.2228C30.8377 14.5951 30.9198 14.3735 30.8833 14.1431C30.8468 13.9126 30.5914 13.7353 30.3268 13.7176C30.0622 13.6999 30.1717 13.2301 30.5549 13.1326C30.9381 13.0351 31.4125 12.8578 31.4125 12.8578C31.4125 12.8578 31.449 13.1681 31.7318 13.0883C32.0055 13.0085 32.1059 12.7249 32.1059 12.7249L32.3796 12.7692C32.3796 12.7692 32.5712 12.5742 32.6259 12.5565C32.6807 12.5476 33.2464 12.6451 33.2464 12.6451C33.2464 12.6451 33.5748 12.6274 33.2646 12.7692C32.9635 12.9199 32.7719 12.7337 32.8449 12.9997C32.9088 13.2744 32.927 13.1149 33.1369 13.301C33.3376 13.4872 33.6569 13.4428 33.7299 13.1947C33.7299 13.1947 34.1496 13.3542 34.2408 13.0972C34.3321 12.8312 34.1222 12.7515 34.1222 12.7515Z" fill="#F7931D"/>
<path d="M31.896 15.5878C32.0147 15.7297 32.3431 15.6499 32.0329 15.3485C32.0329 15.3485 31.7683 15.4549 31.896 15.5878Z" fill="#F7931D"/>
<path d="M32.5895 15.1535C32.6807 15.0294 32.4161 14.8876 32.4161 14.8876C32.4161 14.8876 32.2701 14.8522 32.2428 15.0206C32.2154 15.189 32.5074 15.2776 32.5895 15.1535Z" fill="#F7931D"/>
<path d="M32.6898 15.5967C32.6898 15.5967 33.2007 15.4815 32.854 15.2067C32.854 15.2067 32.7263 15.3574 32.5803 15.3751C32.4344 15.3928 32.2428 15.3485 32.3522 15.6056C32.4526 15.8538 32.6898 15.5967 32.6898 15.5967Z" fill="#F7931D"/>
<path d="M33.4015 14.9585C33.4015 14.9585 32.9453 14.9142 33.146 15.251C33.146 15.251 33.2737 15.3219 33.4015 15.4372C33.5292 15.5613 33.8394 15.6056 33.8668 15.4194C33.8941 15.2333 33.8212 15.0117 33.4015 14.9585Z" fill="#F7931D"/>
<path d="M42.3518 18.7699C42.3518 18.7699 41.4668 18.8497 41.3847 18.6015C41.2934 18.3444 41.0106 18.2558 40.4267 18.3444C39.8428 18.4419 40.08 18.2115 39.8793 18.1317C39.6785 18.0519 39.4596 18.0874 39.4596 18.0874C39.4596 18.0874 40.0526 17.0681 37.9998 17.4935C37.9998 17.4935 37.1878 17.2453 36.9232 17.7328C36.6586 18.2292 36.7681 18.3001 36.0108 18.504C35.2536 18.7078 35.8284 19.151 35.8284 19.151C35.8284 19.151 36.0747 19.3017 35.7827 19.4701C35.4908 19.6385 35.3631 20.1172 35.4999 20.4097C35.6368 20.7022 36.0291 21.3669 36.3119 21.491C36.5948 21.6151 37.4159 21.7126 37.5892 21.5088C37.7535 21.3138 37.8994 21.2783 38.1184 21.4822C38.3374 21.686 39.0673 21.5619 38.9851 21.7569C38.903 21.9519 38.5198 22.3774 38.8118 22.9003C39.1129 23.4233 39.3136 23.831 38.976 24.1147C38.6293 24.3894 38.6476 24.7528 38.9578 25.0719C38.9578 25.0719 38.7114 25.7456 38.9395 26.0381C39.1585 26.3217 39.122 26.7117 39.0399 26.9067C38.9578 27.1017 39.0399 26.9953 39.0399 26.9953C39.0399 26.9953 38.976 27.2967 39.1494 27.1283C39.3136 26.9688 42.9631 23.8488 42.3518 18.7699Z" fill="#F7931D"/>
<path d="M38.2096 17.2808C38.684 17.1744 38.9304 16.6249 38.9304 16.6249C38.9304 16.6249 39.4048 16.8642 39.5964 16.5628C39.5964 16.5628 39.7971 17.1213 40.08 17.201C40.08 17.201 39.8154 17.2453 39.861 17.5113C39.9066 17.7772 40.7095 17.6442 40.5361 17.139C40.3628 16.6338 39.5508 16.7135 40.0343 16.4299C40.5179 16.1551 40.7369 16.944 40.746 17.1567C40.7551 17.3606 40.5726 17.8481 40.9923 17.6708C41.4029 17.4847 41.3117 16.8908 41.4485 17.201C41.5762 17.5113 41.3299 17.8569 41.7131 17.8924C42.1054 17.9278 42.2058 17.9544 42.2058 17.9544C42.2058 17.9544 41.5398 15.4726 40.1256 13.9215C40.1256 13.9215 40.1165 14.1076 39.7606 14.1253C39.4048 14.1431 39.1767 14.5597 39.4231 14.8167C39.6694 15.0738 40.0435 14.9408 40.0343 15.1269C40.0252 15.3131 39.9614 15.4106 39.6785 15.2865C39.3957 15.1535 39.2132 15.1801 39.1402 15.4283C39.0672 15.6765 38.9486 15.8715 38.757 15.774C38.5563 15.6765 38.091 15.836 38.31 16.2438C38.31 16.2438 38.4195 16.6072 38.164 16.5185C37.9085 16.4299 37.2516 16.1994 37.2243 16.8022C37.1878 17.396 37.7352 17.3872 38.2096 17.2808Z" fill="#F7931D"/>
<path d="M38.1914 15.0206C38.3647 15.0826 38.3556 15.251 38.237 15.3042C38.1275 15.3574 37.8994 15.5524 38.1184 15.6144C38.3465 15.6853 38.8756 15.7917 38.8665 15.4815C38.8574 15.1713 38.6202 15.1358 38.6202 15.1358C38.6202 15.1358 38.3738 14.861 38.5472 14.6306C38.5472 14.6306 38.5654 14.409 38.3008 14.4001C38.0363 14.4001 38.0454 14.8344 37.9906 14.8433C37.9359 14.8522 37.6896 14.8344 37.6896 14.8344C37.6896 14.8344 37.2881 15.0383 37.6074 15.3574C37.9359 15.6765 38.0271 14.9674 38.1914 15.0206Z" fill="#F7931D"/>
<path d="M151.854 0.0321611C151.854 0.0321611 151.571 -0.0919298 151.051 0.147388C150.531 0.386707 149.555 0.821025 149.181 1.1933C148.606 1.78716 147.511 2.66466 146.516 3.66625L144.272 3.32943L144.701 2.89512C144.856 2.74443 144.847 2.49625 144.683 2.35443C144.518 2.20375 144.263 2.21262 144.117 2.3633L143.305 3.18762L142.037 2.99262L142.393 2.63807C142.548 2.47852 142.539 2.23921 142.374 2.08852C142.21 1.94671 141.955 1.95557 141.809 2.10625L141.07 2.8508L135.705 2.03534L134.875 2.87739L141.316 5.73148L142.794 7.06989L140.942 9.54284L139.473 11.4131L135.203 10.8192C135.021 10.7926 134.82 10.8547 134.692 10.9876C134.428 11.2624 134.501 11.6967 134.838 11.874L137.521 13.2833C134.537 16.1374 131.015 18.504 127.193 20.2501C124.957 21.2694 122.613 22.0849 120.213 22.6699L118.397 23.0776C117.786 23.184 117.175 23.2992 116.564 23.3967C115.943 23.4676 115.332 23.5651 114.711 23.6272L112.85 23.7513C110.369 23.8665 107.878 23.8133 105.405 23.5474C102.933 23.2726 100.479 22.7763 98.0881 22.0494C93.3256 20.5869 88.8368 18.2203 85.0048 15.0649C88.6452 18.4242 93.0519 21.039 97.8418 22.7408C100.232 23.5917 102.723 24.221 105.25 24.611C107.777 25.0188 110.359 25.1694 112.923 25.0365L114.848 24.8858C115.487 24.8238 116.126 24.744 116.764 24.6819C117.394 24.5933 118.032 24.4869 118.662 24.3894L120.551 24.0083C123.06 23.4499 125.514 22.6522 127.859 21.6328C131.91 19.8867 135.659 17.4758 138.88 14.5153L140.477 16.9706C140.686 17.2808 141.143 17.3251 141.407 17.0592C141.544 16.9174 141.599 16.7313 141.562 16.554L140.686 12.5122L142.557 11.0053L145.029 9.0908L146.516 10.4292L149.865 16.4122L150.695 15.5701L149.573 10.6508L150.376 9.84421C150.522 9.68466 150.522 9.44534 150.358 9.29466C150.193 9.15284 149.938 9.16171 149.783 9.31239L149.363 9.73784L149.098 8.54125L149.965 7.65489C150.12 7.49534 150.111 7.25602 149.947 7.10534C149.792 6.96352 149.536 6.97239 149.381 7.12307L148.889 7.6283L148.369 5.34148C149.363 4.33102 150.221 3.2408 150.795 2.6558C151.17 2.27466 151.562 1.31739 151.781 0.812161C152 0.29807 151.854 0.0321611 151.854 0.0321611Z" fill="#F7931D"/>
<path d="M95.4879 19.5144V19.1865C95.4271 16.421 94.5938 14.1903 92.988 12.4944C92.2034 11.7026 91.2758 11.0792 90.2053 10.6242C89.1348 10.1751 87.9518 9.95058 86.6562 9.95058C86.5163 9.95058 86.3977 9.95058 86.3004 9.95058C86.197 9.95058 86.0753 9.96535 85.9354 9.99489C84.5851 10.0776 83.3413 10.3849 82.2038 10.9167C81.0604 11.4485 80.0659 12.1517 79.2204 13.0263L79.1383 13.1504L79.2204 13.3188C79.4759 13.756 79.7709 14.0692 80.1054 14.2583C80.4764 14.4238 80.8566 14.5065 81.2459 14.5065C81.6169 14.5065 81.997 14.4592 82.3863 14.3647C82.7817 14.2701 83.177 14.1519 83.5724 14.0101C83.9678 13.8742 84.3631 13.759 84.7585 13.6644C85.1477 13.5699 85.5401 13.5078 85.9354 13.4783H86.4007C86.8265 13.4783 87.2006 13.5138 87.5229 13.5847C87.8453 13.6497 88.1464 13.7531 88.4262 13.8949C89.1622 14.2731 89.7126 14.8876 90.0776 15.7385C90.3574 16.3944 90.5398 17.1449 90.625 17.9899C90.0836 17.8244 89.5301 17.6915 88.9645 17.591C90.9991 18.8674 93.1705 19.9576 95.424 20.844C95.4605 20.4126 95.4818 19.9694 95.4879 19.5144Z" fill="#235E8B"/>
<path fill-rule="evenodd" clip-rule="evenodd" d="M87.4043 17.4137C89.7947 19.2219 92.4497 20.7731 95.2689 21.9962C94.9526 23.7335 94.2775 25.2167 93.2435 26.4458C92.5136 27.3203 91.6347 28.0324 90.6067 28.5819C89.5788 29.1256 88.4323 29.4683 87.1671 29.6101C86.9968 29.6337 86.8265 29.6456 86.6562 29.6456C86.4859 29.6456 86.3034 29.6456 86.1088 29.6456C85.5188 29.6456 84.8984 29.5983 84.2475 29.5038C83.6028 29.4092 82.9702 29.226 82.3498 28.9542C81.699 28.706 81.106 28.384 80.5707 27.9881C80.0355 27.5922 79.5854 27.0781 79.2204 26.4458C78.6852 25.654 78.4054 24.6819 78.381 23.5297V23.2903C78.381 22.2208 78.6061 21.3315 79.0562 20.6224C79.4455 19.9074 80.0507 19.2899 80.8718 18.7699C81.6321 18.309 82.4897 17.9603 83.4447 17.724C84.4057 17.4935 85.4062 17.3783 86.4463 17.3783C86.7687 17.3783 87.088 17.3901 87.4043 17.4137ZM89.6123 20.7465C89.2473 20.6874 88.8337 20.6312 88.3714 20.5781C87.9031 20.5249 87.4287 20.4983 86.9481 20.4983C86.5589 20.4983 86.1787 20.519 85.8077 20.5603C85.4427 20.6017 85.1052 20.6756 84.795 20.7819C84.0955 21.0006 83.5602 21.3433 83.1892 21.8101C83.0493 21.9756 82.9368 22.1617 82.8516 22.3685C82.7665 22.5694 82.7117 22.794 82.6874 23.0422C82.657 23.1249 82.6418 23.249 82.6418 23.4144C82.6418 23.6862 82.6844 23.9787 82.7695 24.2919C82.8547 24.6051 83.025 24.9006 83.2804 25.1783C83.5055 25.4501 83.8339 25.6806 84.2658 25.8697C84.7037 26.0647 85.2907 26.1622 86.0267 26.1622C86.2517 26.1622 86.419 26.1474 86.5285 26.1178C87.3192 26.0942 88.0095 25.8756 88.5995 25.4619C88.8793 25.2965 89.1196 25.0985 89.3203 24.8681C89.5149 24.6376 89.6822 24.3835 89.8221 24.1058C90.1323 23.5858 90.3452 23.054 90.4608 22.5103C90.5702 21.9608 90.625 21.4526 90.625 20.9858C90.6007 20.9858 90.5794 20.9799 90.5611 20.9681C90.5489 20.9563 90.5277 20.9503 90.4972 20.9503C90.3878 20.9208 90.2631 20.8942 90.1232 20.8706C89.9772 20.841 89.8069 20.7997 89.6123 20.7465Z" fill="#235E8B"/>
<path d="M110.332 23.5474C110.436 23.3051 110.539 23.0629 110.642 22.8206C112.242 19.1038 114.048 14.8965 116.062 10.1988C115.119 9.98603 114.225 9.90921 113.379 9.9683C112.656 10.0333 111.917 10.2401 111.162 10.5888C110.408 10.9374 109.827 11.5992 109.42 12.5742C109.359 12.6983 109.21 13.0588 108.973 13.6556C108.742 14.2465 108.428 14.9999 108.033 15.9158C107.638 16.8317 107.191 17.8688 106.692 19.0269C106.187 20.1851 105.655 21.4054 105.095 22.6876C104.59 21.5294 104.085 20.3772 103.581 19.2308C103.082 18.0904 102.635 17.0474 102.239 16.1019C101.85 15.1565 101.522 14.3706 101.254 13.7442C100.986 13.1179 100.822 12.7279 100.761 12.5742C100.323 11.5992 99.7335 10.9374 98.9914 10.5888C98.2554 10.2401 97.5286 10.0333 96.8109 9.9683C95.9593 9.90921 95.0622 9.98603 94.1194 10.1988C95.5366 13.4015 96.8078 16.3294 97.9331 18.9826C98.3771 20.0344 98.8241 21.0774 99.2742 22.1115C101.281 22.661 103.353 23.0599 105.433 23.2904C107.011 23.4588 108.653 23.5474 110.332 23.5474Z" fill="#235E8B"/>
<path d="M99.9585 23.6892C100.214 24.3008 100.46 24.8769 100.688 25.4265C101.084 26.3719 101.43 27.1815 101.728 27.8551C102.027 28.5228 102.221 28.9631 102.312 29.1758C101.747 30.4581 101.221 31.6694 100.734 32.8099C100.247 33.9563 99.8156 34.9697 99.4385 35.8501C99.0005 36.8606 98.593 37.7913 98.2159 38.6422C99.1587 38.9199 100.053 39.0115 100.898 38.9169C101.622 38.8578 102.346 38.6451 103.07 38.2788C103.787 37.9124 104.368 37.2417 104.812 36.2667C104.873 36.1426 105.083 35.6699 105.442 34.8485C105.807 34.0272 106.254 32.9901 106.783 31.7374C107.318 30.4906 107.923 29.0901 108.599 27.536C108.921 26.7974 109.243 26.0528 109.566 25.3024C108.115 25.2403 106.655 25.0985 105.205 24.8681C103.425 24.5933 101.674 24.1944 99.9585 23.6892Z" fill="#235E8B"/>
<path d="M127.074 20.0197C128.072 19.5647 129.042 19.0683 129.984 18.5306C130.03 18.4863 130.085 18.4331 130.13 18.3888C130.623 17.9101 130.988 17.5704 131.225 17.3694C132.15 16.5304 132.798 15.6765 133.169 14.8079C133.54 13.9392 133.756 13.1444 133.816 12.4235C133.908 11.5844 133.835 10.7601 133.597 9.95058H117.074C117.074 11.2506 117.445 12.2906 118.188 13.0706C118.93 13.8565 119.988 14.2494 121.363 14.2494H127.922C127.801 14.3026 127.539 14.5035 127.138 14.8522C126.736 15.2008 126.268 15.6204 125.733 16.1108C125.198 16.6013 124.626 17.1449 124.018 17.7417C123.403 18.3326 122.801 18.9088 122.211 19.4701C121.615 20.0374 121.071 20.5663 120.578 21.0567C120.085 21.5472 119.705 21.9224 119.437 22.1824C119.273 22.3508 119.118 22.5192 118.972 22.6788L120.149 22.4217C122.521 21.8367 124.857 21.0301 127.074 20.0197Z" fill="#235E8B"/>
<path d="M118.717 24.6376C118.489 24.6731 118.27 24.7085 118.051 24.744C117.893 24.7676 117.731 24.7942 117.567 24.8238C117.567 24.8238 117.567 24.8267 117.567 24.8326C117.208 25.7013 116.998 26.496 116.938 27.2169C116.846 28.056 116.892 28.8656 117.074 29.6456L133.597 29.6013C133.597 28.3013 133.217 27.2672 132.457 26.499C131.697 25.7367 130.632 25.3556 129.264 25.3556H123.06C123.741 24.6583 124.343 24.0497 124.866 23.5297C125.094 23.2992 125.331 23.0599 125.587 22.8117C123.963 23.3967 122.293 23.8842 120.614 24.2653L118.717 24.6376Z" fill="#235E8B"/>
</svg>
